<mxfile host="app.diagrams.net" agent="Mozilla/5.0 (Windows NT 10.0; Win64; x64) AppleWebKit/537.36 (KHTML, like Gecko) Chrome/139.0.0.0 Safari/537.36" version="28.1.2">
  <diagram name="Страница — 1" id="ASunb61gkTWBkuRmcj2b">
    <mxGraphModel dx="1406" dy="773" grid="1" gridSize="10" guides="1" tooltips="1" connect="1" arrows="1" fold="1" page="1" pageScale="1" pageWidth="827" pageHeight="1169" math="0" shadow="0">
      <root>
        <mxCell id="0" />
        <mxCell id="1" parent="0" />
        <mxCell id="cINkpi_nZqvRnR0yA17l-58" value="" style="verticalLabelPosition=bottom;verticalAlign=top;html=1;shape=mxgraph.basic.patternFillRect;fillStyle=diagRev;step=5;fillStrokeWidth=0.2;fillStrokeColor=#dddddd;rotation=-90;gradientColor=#CCE5FF;" vertex="1" parent="1">
          <mxGeometry x="775" y="239" width="350" height="88" as="geometry" />
        </mxCell>
        <mxCell id="cINkpi_nZqvRnR0yA17l-51" value="" style="verticalLabelPosition=bottom;verticalAlign=top;html=1;shape=mxgraph.basic.patternFillRect;fillStyle=diagRev;step=5;fillStrokeWidth=0.2;fillStrokeColor=#dddddd;rotation=-90;gradientColor=#CCE5FF;" vertex="1" parent="1">
          <mxGeometry x="730" y="222.5" width="125" height="90" as="geometry" />
        </mxCell>
        <mxCell id="cINkpi_nZqvRnR0yA17l-36" value="" style="verticalLabelPosition=bottom;verticalAlign=top;html=1;shape=mxgraph.basic.patternFillRect;fillStyle=diagRev;step=5;fillStrokeWidth=0.2;fillStrokeColor=#dddddd;rotation=-90;gradientColor=#CCE5FF;" vertex="1" parent="1">
          <mxGeometry x="461" y="239" width="350" height="88" as="geometry" />
        </mxCell>
        <mxCell id="cINkpi_nZqvRnR0yA17l-35" value="" style="verticalLabelPosition=bottom;verticalAlign=top;html=1;shape=mxgraph.basic.patternFillRect;fillStyle=diagRev;step=5;fillStrokeWidth=0.2;fillStrokeColor=#dddddd;rotation=-90;gradientColor=#CCE5FF;" vertex="1" parent="1">
          <mxGeometry x="425" y="222.5" width="125" height="90" as="geometry" />
        </mxCell>
        <mxCell id="cINkpi_nZqvRnR0yA17l-34" value="" style="verticalLabelPosition=bottom;verticalAlign=top;html=1;shape=mxgraph.basic.patternFillRect;fillStyle=diagRev;step=5;fillStrokeWidth=0.2;fillStrokeColor=#dddddd;rotation=-90;gradientColor=#CCE5FF;" vertex="1" parent="1">
          <mxGeometry x="280" y="222.5" width="120" height="90" as="geometry" />
        </mxCell>
        <mxCell id="cINkpi_nZqvRnR0yA17l-6" value="" style="verticalLabelPosition=bottom;verticalAlign=top;html=1;shape=mxgraph.basic.patternFillRect;fillStyle=diag;step=5;fillStrokeWidth=0.2;fillStrokeColor=#dddddd;rotation=0;direction=south;fillColor=#eeeeee;strokeColor=#36393d;gradientColor=light-dark(#CCE5FF,#898FFF);" vertex="1" parent="1">
          <mxGeometry x="90" y="91.05" width="120" height="377.89" as="geometry" />
        </mxCell>
        <mxCell id="cINkpi_nZqvRnR0yA17l-1" value="" style="image;html=1;image=img/lib/clip_art/computers/Monitor_128x128.png;labelBackgroundColor=none;" vertex="1" parent="1">
          <mxGeometry x="110" y="130" width="80" height="80" as="geometry" />
        </mxCell>
        <mxCell id="cINkpi_nZqvRnR0yA17l-2" value="" style="image;html=1;image=img/lib/clip_art/computers/iPad_128x128.png;labelBackgroundColor=none;" vertex="1" parent="1">
          <mxGeometry x="110" y="240" width="80" height="80" as="geometry" />
        </mxCell>
        <mxCell id="cINkpi_nZqvRnR0yA17l-3" value="" style="image;html=1;image=img/lib/clip_art/telecommunication/iPhone_128x128.png;labelBackgroundColor=none;" vertex="1" parent="1">
          <mxGeometry x="110" y="360" width="80" height="80" as="geometry" />
        </mxCell>
        <mxCell id="cINkpi_nZqvRnR0yA17l-17" value="&lt;div&gt;Клиент&lt;/div&gt;" style="text;html=1;align=center;verticalAlign=middle;resizable=0;points=[];autosize=1;fontSize=30;labelBorderColor=default;rounded=0;glass=0;" vertex="1" parent="1">
          <mxGeometry x="90" y="478" width="120" height="50" as="geometry" />
        </mxCell>
        <mxCell id="cINkpi_nZqvRnR0yA17l-22" value="" style="image;html=1;image=img/lib/clip_art/general/Earth_globe_128x128.png" vertex="1" parent="1">
          <mxGeometry x="300" y="239.99" width="80" height="80" as="geometry" />
        </mxCell>
        <mxCell id="cINkpi_nZqvRnR0yA17l-23" value="Internet" style="text;html=1;align=center;verticalAlign=middle;resizable=0;points=[];autosize=1;strokeColor=none;fillColor=none;fontSize=30;labelBorderColor=default;" vertex="1" parent="1">
          <mxGeometry x="275" y="328" width="130" height="50" as="geometry" />
        </mxCell>
        <mxCell id="cINkpi_nZqvRnR0yA17l-28" value="" style="image;html=1;image=img/lib/clip_art/computers/Database_128x128.png" vertex="1" parent="1">
          <mxGeometry x="447.5" y="239.99" width="80" height="80" as="geometry" />
        </mxCell>
        <mxCell id="cINkpi_nZqvRnR0yA17l-29" value="Балансировщик" style="text;html=1;align=center;verticalAlign=middle;resizable=0;points=[];autosize=1;strokeColor=none;fillColor=none;labelBorderColor=default;fontSize=20;rounded=0;" vertex="1" parent="1">
          <mxGeometry x="405" y="333" width="170" height="40" as="geometry" />
        </mxCell>
        <mxCell id="cINkpi_nZqvRnR0yA17l-30" value="" style="image;html=1;image=img/lib/clip_art/computers/Server_Tower_128x128.png" vertex="1" parent="1">
          <mxGeometry x="595" y="130" width="80" height="80" as="geometry" />
        </mxCell>
        <mxCell id="cINkpi_nZqvRnR0yA17l-31" value="" style="image;html=1;image=img/lib/clip_art/computers/Server_Tower_128x128.png" vertex="1" parent="1">
          <mxGeometry x="595" y="240" width="80" height="80" as="geometry" />
        </mxCell>
        <mxCell id="cINkpi_nZqvRnR0yA17l-32" value="" style="image;html=1;image=img/lib/clip_art/computers/Server_Tower_128x128.png" vertex="1" parent="1">
          <mxGeometry x="600" y="360" width="80" height="80" as="geometry" />
        </mxCell>
        <mxCell id="cINkpi_nZqvRnR0yA17l-33" value="Серверы" style="text;html=1;align=center;verticalAlign=middle;resizable=0;points=[];autosize=1;strokeColor=none;fillColor=none;fontSize=30;labelBorderColor=default;rounded=0;arcSize=0;shadow=0;" vertex="1" parent="1">
          <mxGeometry x="565" y="478" width="150" height="50" as="geometry" />
        </mxCell>
        <mxCell id="cINkpi_nZqvRnR0yA17l-43" value="" style="endArrow=block;startArrow=block;endFill=1;startFill=1;html=1;rounded=0;" edge="1" parent="1">
          <mxGeometry width="160" relative="1" as="geometry">
            <mxPoint x="220" y="279.98" as="sourcePoint" />
            <mxPoint x="290" y="279.49" as="targetPoint" />
          </mxGeometry>
        </mxCell>
        <mxCell id="cINkpi_nZqvRnR0yA17l-47" value="" style="endArrow=block;startArrow=block;endFill=1;startFill=1;html=1;rounded=0;" edge="1" parent="1">
          <mxGeometry width="160" relative="1" as="geometry">
            <mxPoint x="393.5" y="280.47" as="sourcePoint" />
            <mxPoint x="433.5" y="279.49" as="targetPoint" />
          </mxGeometry>
        </mxCell>
        <mxCell id="cINkpi_nZqvRnR0yA17l-49" value="" style="endArrow=block;startArrow=block;endFill=1;startFill=1;html=1;rounded=0;" edge="1" parent="1">
          <mxGeometry width="160" relative="1" as="geometry">
            <mxPoint x="550" y="280.47" as="sourcePoint" />
            <mxPoint x="590" y="279.49" as="targetPoint" />
          </mxGeometry>
        </mxCell>
        <mxCell id="cINkpi_nZqvRnR0yA17l-50" value="" style="endArrow=block;startArrow=block;endFill=1;startFill=1;html=1;rounded=0;" edge="1" parent="1">
          <mxGeometry width="160" relative="1" as="geometry">
            <mxPoint x="690" y="279.49" as="sourcePoint" />
            <mxPoint x="730" y="279.49" as="targetPoint" />
          </mxGeometry>
        </mxCell>
        <mxCell id="cINkpi_nZqvRnR0yA17l-52" value="" style="image;html=1;image=img/lib/clip_art/computers/Database_128x128.png" vertex="1" parent="1">
          <mxGeometry x="752.5" y="243" width="80" height="80" as="geometry" />
        </mxCell>
        <mxCell id="cINkpi_nZqvRnR0yA17l-53" value="Балансировщик" style="text;html=1;align=center;verticalAlign=middle;resizable=0;points=[];autosize=1;strokeColor=none;fillColor=none;labelBorderColor=default;fontSize=20;" vertex="1" parent="1">
          <mxGeometry x="707.5" y="333" width="170" height="40" as="geometry" />
        </mxCell>
        <mxCell id="cINkpi_nZqvRnR0yA17l-54" value="" style="endArrow=block;startArrow=block;endFill=1;startFill=1;html=1;rounded=0;" edge="1" parent="1">
          <mxGeometry width="160" relative="1" as="geometry">
            <mxPoint x="855" y="282.5" as="sourcePoint" />
            <mxPoint x="895" y="282.5" as="targetPoint" />
          </mxGeometry>
        </mxCell>
        <mxCell id="cINkpi_nZqvRnR0yA17l-55" value="" style="image;html=1;image=img/lib/clip_art/computers/Server_128x128.png" vertex="1" parent="1">
          <mxGeometry x="910" y="360" width="80" height="80" as="geometry" />
        </mxCell>
        <mxCell id="cINkpi_nZqvRnR0yA17l-56" value="" style="image;html=1;image=img/lib/clip_art/computers/Server_128x128.png" vertex="1" parent="1">
          <mxGeometry x="910" y="243" width="80" height="80" as="geometry" />
        </mxCell>
        <mxCell id="cINkpi_nZqvRnR0yA17l-57" value="" style="image;html=1;image=img/lib/clip_art/computers/Server_128x128.png" vertex="1" parent="1">
          <mxGeometry x="910" y="130" width="80" height="80" as="geometry" />
        </mxCell>
        <mxCell id="cINkpi_nZqvRnR0yA17l-59" value="Базы данных" style="text;html=1;align=center;verticalAlign=middle;resizable=0;points=[];autosize=1;strokeColor=none;fillColor=none;labelBorderColor=default;fontSize=30;" vertex="1" parent="1">
          <mxGeometry x="855" y="478" width="210" height="50" as="geometry" />
        </mxCell>
        <mxCell id="cINkpi_nZqvRnR0yA17l-60" value="" style="endArrow=block;startArrow=block;endFill=1;startFill=1;html=1;rounded=0;" edge="1" parent="1">
          <mxGeometry width="160" relative="1" as="geometry">
            <mxPoint x="220" y="378" as="sourcePoint" />
            <mxPoint x="290" y="307.51" as="targetPoint" />
          </mxGeometry>
        </mxCell>
        <mxCell id="cINkpi_nZqvRnR0yA17l-61" value="" style="endArrow=block;startArrow=block;endFill=1;startFill=1;html=1;rounded=0;" edge="1" parent="1">
          <mxGeometry width="160" relative="1" as="geometry">
            <mxPoint x="230" y="180" as="sourcePoint" />
            <mxPoint x="290" y="250.01" as="targetPoint" />
          </mxGeometry>
        </mxCell>
        <mxCell id="cINkpi_nZqvRnR0yA17l-62" value="" style="endArrow=block;startArrow=block;endFill=1;startFill=1;html=1;rounded=0;" edge="1" parent="1">
          <mxGeometry width="160" relative="1" as="geometry">
            <mxPoint x="550" y="310" as="sourcePoint" />
            <mxPoint x="585" y="360" as="targetPoint" />
          </mxGeometry>
        </mxCell>
        <mxCell id="cINkpi_nZqvRnR0yA17l-63" value="" style="endArrow=block;startArrow=block;endFill=1;startFill=1;html=1;rounded=0;" edge="1" parent="1">
          <mxGeometry width="160" relative="1" as="geometry">
            <mxPoint x="550" y="250" as="sourcePoint" />
            <mxPoint x="585" y="190" as="targetPoint" />
          </mxGeometry>
        </mxCell>
        <mxCell id="cINkpi_nZqvRnR0yA17l-64" value="" style="endArrow=block;startArrow=block;endFill=1;startFill=1;html=1;rounded=0;" edge="1" parent="1">
          <mxGeometry width="160" relative="1" as="geometry">
            <mxPoint x="690" y="210" as="sourcePoint" />
            <mxPoint x="730" y="249.51" as="targetPoint" />
          </mxGeometry>
        </mxCell>
        <mxCell id="cINkpi_nZqvRnR0yA17l-65" value="" style="endArrow=block;startArrow=block;endFill=1;startFill=1;html=1;rounded=0;" edge="1" parent="1">
          <mxGeometry width="160" relative="1" as="geometry">
            <mxPoint x="690" y="350" as="sourcePoint" />
            <mxPoint x="730" y="307.51" as="targetPoint" />
          </mxGeometry>
        </mxCell>
        <mxCell id="cINkpi_nZqvRnR0yA17l-66" value="" style="endArrow=block;startArrow=block;endFill=1;startFill=1;html=1;rounded=0;" edge="1" parent="1">
          <mxGeometry width="160" relative="1" as="geometry">
            <mxPoint x="850" y="260" as="sourcePoint" />
            <mxPoint x="902.5" y="200" as="targetPoint" />
          </mxGeometry>
        </mxCell>
        <mxCell id="cINkpi_nZqvRnR0yA17l-67" value="" style="endArrow=block;startArrow=block;endFill=1;startFill=1;html=1;rounded=0;" edge="1" parent="1">
          <mxGeometry width="160" relative="1" as="geometry">
            <mxPoint x="850" y="300" as="sourcePoint" />
            <mxPoint x="897" y="363" as="targetPoint" />
          </mxGeometry>
        </mxCell>
      </root>
    </mxGraphModel>
  </diagram>
</mxfile>
